<svg xmlns="http://www.w3.org/2000/svg" viewBox="0 0 1024 1024">
  <path d="M88 731c-5-3-10-8-11-14-2-7-2-13 1-18 5-8 13-13 21-13 5 0 8 2 11 4l378 209 408-134c16-34 21-67 13-101-5-18-11-30-16-37L482 768 88 549c-11-7-16-21-10-32 5-8 13-13 21-13 5 0 8 2 11 3l375 210 411-141c18-29 21-61 8-94-6-16-16-31-21-39L480 589 88 370c-5-4-10-8-11-15-2-6-2-13 1-17 5-8 13-13 21-13 5 0 8 1 11 3l375 210 403-146c22-35 27-70 18-104-4-11-8-19-13-26L482 419 64 190 525 74l387 136 3 3c3 1 24 24 37 61 11 33 16 86-24 147 8 9 16 25 22 43 20 48 13 98-14 141 6 9 14 25 19 46 8 32 11 85-21 144l-4 8-447 146L88 731zm397-365l349-132-80-28-348 119c2-2 79 41 79 41z" fill="#0c7"/>
</svg>
