<svg xmlns="http://www.w3.org/2000/svg" viewBox="0 0 1024 1024"><path d="M725 555v42c0 119-28 233-81 335l-10 18-75-42c50-88 78-188 81-291v-62h85zM469 427h86v170l-1 17a552 552 0 01-114 322l-10 12-66-54a467 467 0 00105-281V427zm43-171a213 213 0 01213 213h-85a128 128 0 00-256 0v128c0 96-35 186-97 255l-9 10-62-59a297 297 0 0082-193l1-13V469a213 213 0 01213-213zm0-171a384 384 0 01384 384v128c0 73-9 144-25 213l-6 23-83-22c17-62 26-125 28-189l1-25V469a299 299 0 00-478-239l-61-61a382 382 0 01240-84zM212 230l61 60a297 297 0 00-59 169l-1 10 1 86c0 47-12 94-33 135l-7 13-74-43a211 211 0 0028-93v-98a381 381 0 0184-239z"/></svg>
