<svg xmlns="http://www.w3.org/2000/svg" viewBox="0 0 1024 1024"><path d="M251 796c-13-9-24-20-37-35a2147 2147 0 01-20-25c-19-24-32-35-45-40a43 43 0 0129-80c32 11 54 31 83 67l19 23c8 10 14 16 18 19 9 6 26 8 50 6 1-16 4-32 8-47-126-31-198-112-198-273 0-53 16-100 45-140-9-38-8-84 13-136a43 43 0 0127-25l9-2c34-5 82 7 145 47a501 501 0 01115-14c39 0 78 5 115 14 63-40 111-53 146-47l9 2a43 43 0 0126 25c21 52 22 98 13 136 29 40 45 87 45 140 0 161-71 242-198 273 5 18 8 38 8 59a12821 12821 0 010 116 43 43 0 01-1 83c-49 10-85-22-85-65v-19l1-30v-85c0-30-8-49-18-58a43 43 0 0123-75c126-14 185-63 185-199 0-40-14-74-39-102a43 43 0 01-8-45c7-18 10-41 4-69h-1c-21 6-47 19-79 41a43 43 0 01-35 6 411 411 0 00-111-15c-38 0-76 5-111 15a43 43 0 01-35-6c-32-22-59-34-80-40-6 27-3 51 4 68a43 43 0 01-8 45c-25 28-39 62-39 102 0 136 59 185 185 199 37 4 51 50 23 75-8 7-18 31-18 58v134c0 42-36 74-84 66a43 43 0 01-2-84v-42c-39 2-71-4-96-21z"/></svg>
