<svg xmlns="http://www.w3.org/2000/svg" viewBox="0 0 1024 1024"><path d="M445 485c-13 44 0 88 33 114a77 77 0 00123-43c3-14 4-31 1-45-10-43-22-85-34-128-57 7-108 50-123 102zm236-12c12 43 13 86-5 128a164 164 0 01-281 35c-55-69-54-169 3-244 33-44 77-73 130-88l16-4c-3-18-8-35-10-53-8-56 22-106 74-129 53-23 116-10 151 32 17 21 17 46-1 63-18 16-43 14-61-4-11-11-22-19-38-19-22 0-42 18-40 40 1 20 7 40 13 59 1 4 9 6 14 7 57 8 107 31 148 71a305 305 0 0129 403 383 383 0 11-448-589c25-10 49-1 59 22 10 22-1 46-26 57a298 298 0 10345 461c68-88 60-217-18-293a170 170 0 00-78-43l24 88z"/></svg>
