<svg xmlns="http://www.w3.org/2000/svg" viewBox="0 0 1024 1024"><path d="M362 882h67l23-144a120 120 0 01118-101h21c114 0 173-42 194-150 9-45 5-73-7-89-52 130-162 177-297 177h-38c-16 0-34 9-36 25l-45 282zm-210-13a24 24 0 01-24-27l114-724a39 39 0 0139-33h274c95 0 168 20 209 67 37 42 48 89 37 157 16 8 29 18 40 30 34 40 41 97 28 165-32 162-140 218-278 218h-21a34 34 0 00-34 29l-30 187a34 34 0 01-34 29H287a21 21 0 01-21-24l12-74H151zm291-379h38c136 0 209-52 234-181l2-13c7-45 2-66-17-88-20-22-68-37-145-37H321l-97 613h66l32-198a124 124 0 01121-96z"/></svg>
