<svg xmlns="http://www.w3.org/2000/svg" viewBox="0 0 1024 1024"><path d="M748 534l-30-77 1-24c0-131-60-262-207-262S305 302 305 433l1 24-30 77-22 64c-28 94-19 132-12 133 15 2 58-70 58-70 0 42 20 96 65 136-16 5-37 13-50 23-12 10-11 19-9 23 10 16 162 10 206 5 44 5 196 11 206-5 2-4 3-13-9-23-13-10-34-18-50-23 45-40 65-94 65-136 0 0 43 72 58 70 7-1 16-39-12-133l-22-64zm44 351a90 90 0 01-62 45 209 209 0 01-34 6c-18 2-42 3-68 3a1418 1418 0 01-116-5c-29 2-76 5-116 5a686 686 0 01-68-3 210 210 0 01-34-6c-26-7-46-17-62-45a97 97 0 01-10-71c-25-5-43-20-54-38a104 104 0 01-14-31 172 172 0 01-5-47c1-33 8-75 23-124l24-71 24-61a661 661 0 010-9c0-194 104-348 292-348s292 154 292 348v9l24 61v1c10 26 18 49 24 70 15 49 22 90 23 124 0 17-2 33-5 47-3 11-7 21-14 31a86 86 0 01-54 38c6 24 2 49-10 71z"/></svg>
