<svg xmlns="http://www.w3.org/2000/svg" viewBox="0 0 180 40"><path d="M6.86 19.83q0-.48.1-.69.14-.2.62-.44l13.04-7.34q.27-.17.55-.17.37 0 .37.65v1.57q0 .48-.17.68-.14.2-.61.48l-10.1 5.63 10.1 5.63q.47.28.61.48.17.2.17.68v1.57q0 .65-.37.65-.28 0-.55-.17L7.58 21.7q-.48-.24-.61-.44-.1-.2-.1-.68zM31.61 12.76q0-.34.14-.47.13-.14.44-.14h2.12q.3 0 .44.14.17.13.17.47v8.37q0 5.05 4.06 5.05 4.13 0 4.13-5.05v-8.37q0-.34.14-.47.17-.14.48-.14h2.11q.31 0 .45.14.13.13.13.47v8.64q0 3.79-1.9 5.84-1.92 2.01-5.54 2.01-3.58 0-5.5-2.01-1.87-2.02-1.87-5.84zM54.38 13q0-.44.2-.65.2-.2.65-.2h1.57q.45 0 .65.2.24.2.24.65v1.06q.82-1.1 2.08-1.67 1.27-.58 2.8-.58 3.24 0 4.92 2.05 1.7 2.01 1.7 5.8v8.6q0 .34-.13.48-.14.13-.45.13H66.5q-.31 0-.48-.13-.14-.14-.14-.48V19.9q0-2.43-1.06-3.72-1.05-1.33-3.03-1.33-1.95 0-3.04 1.33-1.06 1.3-1.06 3.72v8.36q0 .34-.14.48-.13.13-.44.13h-2.12q-.34 0-.47-.13-.14-.14-.14-.48z"/><path d="M77.18 12.87q0-.45.14-.58.17-.14.58-.14h4.8q3.15 0 5.33 1.02 2.19 1 3.28 2.87 1.13 1.84 1.13 4.37 0 2.56-1.13 4.47-1.13 1.88-3.34 2.94-2.19 1.05-5.33 1.05h-1.77q-.2 0-.31.07-.07.1-.07.31v6.72q0 .45-.17.58-.17.18-.58.18H77.9q-.41 0-.58-.18-.14-.13-.14-.58zm5.43 13q1.9 0 3.34-.61 1.47-.62 2.25-1.85.82-1.23.82-3 0-2.56-1.7-3.9-1.68-1.32-4.71-1.32h-1.74q-.2 0-.31.1-.07.07-.07.3v9.87q0 .41.38.41zM99.31 4.03q0-.45.17-.58.17-.18.58-.18h1.81q.41 0 .58.18.17.13.17.58v24.1q0 .44-.17.6-.17.14-.58.14h-1.8q-.42 0-.59-.13-.17-.17-.17-.62zm4.06 16.86l-.13-.17q-.1-.17-.1-.31 0-.1.06-.24.07-.14.17-.27l5.98-7.1q.3-.34.54-.48.28-.17.72-.17h2.46q.51 0 .51.3 0 .25-.24.52l-6.24 7.27 7 7.88q.16.24.16.41 0 .14-.13.24-.14.1-.38.1h-2.6q-.47 0-.74-.13-.24-.14-.55-.48zM121.5 33.69q.07-.31.2-.45.14-.13.38-.13.14 0 .75.17t1.23.27q.65.14 1.43.14 4.44 0 4.54-4.5 0-.32-.24-.32h-1.9q-3.15 0-5.33-.99-2.19-.99-3.35-2.83-1.12-1.88-1.12-4.44 0-2.49 1.12-4.4 1.13-1.91 3.31-2.97 2.22-1.1 5.36-1.1h4.75q.4 0 .58.18.17.14.17.58v15.74q0 3.99-2.02 6.04-1.98 2.05-5.83 2.05-1.1 0-2.22-.2-1.1-.21-1.85-.52-.44-.2-.44-.62 0-.17.04-.3zm8.16-7.85q.2 0 .27-.07.1-.1.1-.34v-9.87q0-.4-.37-.4h-1.74q-1.95 0-3.38.6-1.44.62-2.26 1.85-.78 1.23-.78 3 0 2.53 1.7 3.9 1.71 1.33 4.72 1.33z" fill="#cd4230"/><path d="M149.75 10.24q.2-.38.37-.5.2-.1.66-.1h1.71q.63 0 .63.35 0 .16-.07.27l-9.3 18.36q-.2.38-.4.49-.2.1-.66.1h-1.71q-.6 0-.6-.32 0-.19.07-.3zM158.46 27q0-.48.14-.69.13-.2.61-.48l10.1-5.63-10.1-5.63q-.48-.27-.61-.48-.14-.2-.14-.68v-1.57q0-.34.07-.48.1-.17.3-.17.28 0 .52.17l13.04 7.34q.47.24.61.44t.14.69v.75q0 .48-.14.68-.14.2-.61.44l-13.04 7.34q-.24.17-.52.17-.2 0-.3-.13-.07-.17-.07-.52z"/></svg>
