<svg xmlns="http://www.w3.org/2000/svg" version="1.0" viewBox="0 0 160 160"><path d="M2 50.7l23.4 13.5L2.1 77.8l25.9 15v18l52 30 52-30v-18l26-15-23.4-13.5 23.3-13.5-54.5-31.5-15.6 9 7.8 4.5 7.8-4.5 39 22.5-15.6 9L108 49v9l11 6.4-39 22.5-39-22.5 11-6.4v-9L33.2 59.8l-15.6-9 39-22.6 7.8 4.5 7.8-4.5-15.6-9zm70.2 40.5l-15.6 9-39-22.5 15.6-9zm70.2-13.5l-39 22.5-15.6-9 39-22.5zm-86.4 32L76 98v31l-40-23v-8.8zm68-3.6l-40 23v-31l19.4 11.2 20.6-12z"/><path fill="#cd4230" d="M60 44.3v9l20-11.6 20 11.6v-9L80 32.7z"/><path d="M60 62.3v9l20-11.5 20 11.5v-9L80 50.7z" fill="#cd4230"/></svg>
