<svg xmlns="http://www.w3.org/2000/svg" viewBox="0 0 1024 1024"><path d="M370 491a54 54 0 01-55-55c0-30 24-55 55-55 30 0 55 25 55 55 0 31-25 55-55 55zm284 0a54 54 0 01-55-55c0-30 25-55 55-55 31 0 55 25 55 55 0 31-24 55-55 55zM291 820l31-19a171 171 0 01115-23 852 852 0 0075 7c189 0 337-129 337-282S701 222 512 222 175 351 175 503a249 249 0 0070 172 171 171 0 0147 132l-1 13zm-27 116a43 43 0 01-65-39l8-97a85 85 0 00-23-66 298 298 0 01-13-14c-51-61-81-136-81-217 0-202 189-366 422-366s422 164 422 366-189 367-422 367c-22 0-43-1-64-4a1007 1007 0 01-24-3 85 85 0 00-58 11l-102 62z"/></svg>
