<svg xmlns="http://www.w3.org/2000/svg" viewBox="0 0 1024 1024"><path d="M862 606c0 143-194 274-424 274-211 0-395-104-395-260 0-83 50-174 138-260 121-117 266-172 335-104 21 20 31 48 31 79 84-24 156-17 191 32 19 27 23 59 14 94 65 26 110 76 110 145zm-190-89c-16-17-17-39-8-60s9-34 5-40c-11-16-66-15-136 13a87 87 0 01-22 6c-15 2-29 0-42-11-18-15-20-36-14-56 9-29 8-46 2-52-8-8-33-8-71 6-46 17-98 52-146 99-73 70-112 142-112 198 0 96 140 174 310 174 189 0 338-101 338-188 0-32-27-57-71-71-17-5-23-7-33-18zm301-69a43 43 0 01-82-21 171 171 0 00-201-210 43 43 0 11-17-84 256 256 0 01300 315z"/></svg>
