<svg xmlns="http://www.w3.org/2000/svg" viewBox="0 0 1024 1024"><path d="M817 384L399 623l-3 2a28 28 0 01-13 3 28 28 0 01-25-15l-2-4-78-168-1-6c0-8 6-14 14-14l9 3 92 65c7 4 15 7 24 7a40 40 0 0014-3l353-156a360 360 0 00-271-115c-189 0-337 129-337 281a249 249 0 0070 172 171 171 0 0147 132l-1 13 31-19a171 171 0 01115-23 852 852 0 0075 7c189 0 337-129 337-282 0-42-11-83-32-119zM264 936a43 43 0 01-65-40l8-96a85 85 0 00-23-66 298 298 0 01-13-14c-51-61-81-136-81-217 0-202 189-366 422-366s422 164 422 366-189 367-422 367c-22 0-43-1-64-4a1007 1007 0 01-24-3 85 85 0 00-58 11l-102 62z"/></svg>
