<svg xmlns="http://www.w3.org/2000/svg" viewBox="0 0 1024 1024"><path d="M904 350c-12-45 11-116 83-142l-77-4S880 101 746 92c-135-9-223-3-223-3s100 63 60 176c-30 60-75 110-125 166a122 122 0 00-4 4C292 618 37 910 37 910c281 73 469-7 580-104l53-1c155 0 287-134 281-284-3-102-36-126-47-171zM670 732h-53l-27 1-21 17c-53 47-119 82-195 101-60 14-126 18-198 10l64-72 270-306 2-2 1-2a4048 4048 0 0057-65c35-42 59-77 78-116l2-4 2-4c15-44 17-88 7-129l82 4c38 3 63 15 81 34 7 6 12 14 15 21a101 101 0 013 6l6 20a190 190 0 001 162l12 26c12 26 18 49 19 90 4 108-94 208-208 208z"/></svg>
